<svg width="980" height="630" viewBox="0 0 980 630" fill="none" xmlns="http://www.w3.org/2000/svg">
  <path d="M219 178C104 178 10 272 10 387s94 208 209 208h557c108 0 195-87 195-195s-87-195-195-195c-11 0-23 1-34 3C719 88 614 0 490 0 374 0 276 75 240 179c-7-1-14-1-21-1Z" fill="#F1F2F4"/>
  <defs>
    <linearGradient id="zipBlue" x1="113" y1="183" x2="815" y2="508" gradientUnits="userSpaceOnUse">
      <stop stop-color="#0B6595"/>
      <stop offset="0.45" stop-color="#59C5F2"/>
      <stop offset="1" stop-color="#0C6A9C"/>
    </linearGradient>
    <linearGradient id="zipDark" x1="219" y1="255" x2="720" y2="520" gradientUnits="userSpaceOnUse">
      <stop stop-color="#0B638F"/>
      <stop offset="1" stop-color="#07537D"/>
    </linearGradient>
  </defs>
  <path d="M156 240h204c26 0 45 17 45 40 0 12-5 24-14 33L248 472h115c26 0 42 13 42 37s-17 38-44 38H153c-24 0-41-16-41-39 0-10 4-21 12-30l145-161H157c-27 0-44-14-44-38 0-23 17-39 43-39Z" fill="url(#zipBlue)"/>
  <path d="M248 472c5 47 31 72 82 75h-177c-24 0-41-16-41-39 0-10 4-21 12-30l145-161c42 7 62 34 61 73l-82 82Z" fill="#56C3EF"/>
  <path d="M269 317c42 7 62 34 61 73l-82 82c0 28 10 51 30 64-32-8-47-29-47-63l38-156Z" fill="url(#zipDark)" opacity="0.9"/>
  <path d="M464 225c23 0 40-17 40-40s-17-40-40-40-40 17-40 40 17 40 40 40Zm-39 52c0-24 16-41 39-41 24 0 39 17 39 41v211c0 24-16 42-39 42s-39-18-39-42V277Z" fill="url(#zipBlue)"/>
  <path d="M503 341c-48 10-77 39-78 83v64c0 24 16 42 39 42s39-18 39-42V341Z" fill="url(#zipDark)" opacity="0.86"/>
  <path d="M532 608c0-63 0-126 1-189 1-107 59-185 146-185 84 0 142 59 142 144 0 84-57 143-142 143-27 0-50-6-70-19v73c0 24-15 40-38 40-24 0-39-17-39-42v35Zm145-299c-40 0-68 29-68 70s28 70 68 70c41 0 68-29 68-70s-27-70-68-70Z" fill="url(#zipBlue)"/>
  <path d="M684 521c-29 0-54-7-75-20v74c0 23-15 40-38 40-24 0-39-17-39-42V341c25-9 52-5 77 25v13c0 41 28 70 68 70 29 0 52-15 62-40 7 50 30 82 69 98-28 10-58 14-124 14Z" fill="url(#zipDark)" opacity="0.72"/>
</svg>
