<svg xmlns="http://www.w3.org/2000/svg" viewBox="0 0 128 128">
  <defs>
    <linearGradient id="zipBlue" x1="18" y1="16" x2="112" y2="118" gradientUnits="userSpaceOnUse">
      <stop offset="0" stop-color="#42C8F4" />
      <stop offset="0.52" stop-color="#159BE2" />
      <stop offset="1" stop-color="#006ED2" />
    </linearGradient>
    <linearGradient id="zBlue" x1="39" y1="46" x2="90" y2="88" gradientUnits="userSpaceOnUse">
      <stop offset="0" stop-color="#0A5B98" />
      <stop offset="0.5" stop-color="#42C8F4" />
      <stop offset="1" stop-color="#0874D1" />
    </linearGradient>
    <filter id="softShadow" x="-20%" y="-20%" width="140%" height="140%">
      <feDropShadow dx="0" dy="4" stdDeviation="5" flood-color="#003E6B" flood-opacity="0.18" />
    </filter>
  </defs>

  <rect width="128" height="128" rx="24" fill="url(#zipBlue)" />

  <path
    d="M35.5 96.5c-16.2 0-29.5-12.4-29.5-27.8 0-13.3 9.9-24.6 23.2-27.2C33.2 25 48.2 13.2 65.5 13.2c20.7 0 38 15.4 40.4 35.4 10.2 3.8 17.5 13.5 17.5 24.9 0 12.8-10.5 23-23.4 23H35.5Z"
    fill="#FFFFFF"
    filter="url(#softShadow)"
  />

  <path
    d="M42 42h40c4.7 0 7.3 5.4 4.3 9L60.2 82H86v14H45.8c-4.8 0-7.5-5.6-4.4-9.2L67.2 56H42V42Z"
    fill="url(#zBlue)"
  />

  <path
    d="M67.2 56 54.1 71.6c8.9-.5 16.7 5.8 18 14.5L86 70.1H63.6L67.2 56Z"
    fill="#075F9F"
    opacity="0.35"
  />
</svg>
